# xmcd CD database file
#
# Track frame offsets:
#	150
#	19693
#	30535
#	50102
#	62143
#	74148
#	90420
#	103448
#	116479
#	129634
#	144200
#	158323
#	174036
#	185102
#	198418
#	212813
#	225590
#	242954
#	257067
#	271899
#
# Disc length: 3773 seconds
#
# Revision: 0
# Processed by: cddbd v1.5.1PL0 Copyright (c) Steve Scherf et al.
# Submitted via: CDex 1.51
#
DISCID=200ebb14
DTITLE=Ladies In Blue - Ladies In Blue CD2
DYEAR=1900
DGENRE=Jazz
TTITLE0=June Christy - Something Cool
TTITLE1=Chris Connor - Lullaby Of Birdland
TTITLE2=Helen Merrill - You'd Be So Nice
TTITLE3=Annie Ross - Twisted
TTITLE4=Carmen Mc Rae - Old Devil Moon
TTITLE5=Rosemary Clooney - Blues In The Night
TTITLE6=Kay Starr - So Tired
TTITLE7=Peggy Lee - Elmer's Tune
TTITLE8=Helen Forrest - Oh! Look At Me Know
TTITLE9=Mildred Bailey - Lover Come Back To Me
TTITLE10=Doris Day - You Won't Be Satisfied
TTITLE11=June Christy - Lover Man
TTITLE12=Anita O'Day - Tea For Two
TTITLE13=Lena Horne - Honeysuckle Rose
TTITLE14=Helen Forrest - It's Been A Long Long Time
TTITLE15=Jean Eldbridge Something To Live For
TTITLE16=Ida James - Close To You
TTITLE17=June Christy - How Long Hos This Been Going On
TTITLE18=Lena Horne - You're My Thrill
TTITLE19=Ivie Anderson - I'm Checking Out Co'ombye
EXTD=
EXTT0=
EXTT1=
EXTT2=
EXTT3=
EXTT4=
EXTT5=
EXTT6=
EXTT7=
EXTT8=
EXTT9=
EXTT10=
EXTT11=
EXTT12=
EXTT13=
EXTT14=
EXTT15=
EXTT16=
EXTT17=
EXTT18=
EXTT19=
PLAYORDER=
